<svg xmlns="http://www.w3.org/2000/svg" xmlns:xlink="http://www.w3.org/1999/xlink" width="224" height="182" viewBox="0 0 224 182">
    <defs>
        <path id="a" d="M163.573 0c-15.96 0-30.959 6.457-42.233 18.183l-9.718 10.105-9.716-10.105C90.631 6.457 75.632 0 59.673 0c-15.96 0-30.958 6.457-42.234 18.183C6.193 29.879 0 45.422 0 61.948s6.193 32.068 17.439 43.764l67.175 69.863c3.587 3.729 8.37 5.783 13.469 5.783s9.882-2.054 13.469-5.783l.07-.075.072.075c3.586 3.729 8.37 5.783 13.469 5.783 5.098 0 9.882-2.054 13.468-5.784l67.176-69.862c11.246-11.696 17.439-27.238 17.439-43.764 0-16.526-6.193-32.069-17.439-43.765C194.531 6.457 179.533 0 163.573 0zM61.926 107.987c-3.231-3.359-3.231-8.827 0-12.187l30.52-31.74 7.61-7.915 11.566-12.029 7.61-7.914 9.869-10.263c9.198-9.566 21.441-14.835 34.471-14.835 13.031 0 25.273 5.269 34.473 14.835 19.092 19.855 19.091 52.162-.001 72.017l-67.175 69.862c-1.527 1.588-3.554 2.464-5.707 2.464s-4.18-.876-5.707-2.464c-1.423-1.48-2.272-3.449-2.396-5.555.009-.358.009-.719 0-1.078.124-2.105.973-4.075 2.396-5.555l33.048-34.37c6.023 1.022 12.246-1.013 16.578-5.516 7.342-7.637 7.342-20.062 0-27.699l-32.259-33.55a8.31 8.31 0 0 0-11.865-.117l-1.768 1.767-19.176 19.944-30.672 31.898c-1.527 1.59-3.554 2.465-5.707 2.465-2.154 0-4.18-.875-5.708-2.465zm30.45 59.831L25.201 97.956c-19.092-19.855-19.092-52.162.001-72.017 9.198-9.566 21.44-14.835 34.47-14.835 13.031 0 25.274 5.269 34.472 14.835l9.869 10.263-49.848 51.843c-7.343 7.637-7.343 20.062 0 27.699 4.33 4.503 10.555 6.541 16.578 5.516l33.047 34.37c1.424 1.48 2.273 3.45 2.397 5.556-.009.358-.009.718 0 1.076-.124 2.107-.973 4.075-2.396 5.556-1.529 1.588-3.556 2.464-5.709 2.464-2.152 0-4.179-.876-5.706-2.464zm57.529-59.83l-30.673-31.899 11.567-12.029 30.519 31.74c3.232 3.36 3.232 8.828 0 12.188-1.528 1.589-3.553 2.464-5.707 2.464-2.152 0-4.179-.875-5.706-2.464zm-38.353 39.887l-30.673-31.901c.075-.077.15-.152.224-.23l30.519-31.741 30.52 31.741.225.23-30.674 31.901-.071.073-.07-.073z"/>
        <linearGradient id="b" x1="0%" y1="50%" y2="50%">
            <stop offset="0%" stop-color="#FFCA97"/>
            <stop offset="100%" stop-color="#F37"/>
        </linearGradient>
    </defs>
    <g fill="none" fill-rule="evenodd">
        <mask id="c" fill="#fff">
            <use xlink:href="#a"/>
        </mask>
        <path fill="url(#b)" d="M163.573 0c-15.96 0-30.959 6.457-42.233 18.183l-9.718 10.105-9.716-10.105C90.631 6.457 75.632 0 59.673 0c-15.96 0-30.958 6.457-42.234 18.183C6.193 29.879 0 45.422 0 61.948s6.193 32.068 17.439 43.764l67.175 69.863c3.587 3.729 8.37 5.783 13.469 5.783s9.882-2.054 13.469-5.783l.07-.075.072.075c3.586 3.729 8.37 5.783 13.469 5.783 5.098 0 9.882-2.054 13.468-5.784l67.176-69.862c11.246-11.696 17.439-27.238 17.439-43.764 0-16.526-6.193-32.069-17.439-43.765C194.531 6.457 179.533 0 163.573 0zM61.926 107.987c-3.231-3.359-3.231-8.827 0-12.187l30.52-31.74 7.61-7.915 11.566-12.029 7.61-7.914 9.869-10.263c9.198-9.566 21.441-14.835 34.471-14.835 13.031 0 25.273 5.269 34.473 14.835 19.092 19.855 19.091 52.162-.001 72.017l-67.175 69.862c-1.527 1.588-3.554 2.464-5.707 2.464s-4.18-.876-5.707-2.464c-1.423-1.48-2.272-3.449-2.396-5.555.009-.358.009-.719 0-1.078.124-2.105.973-4.075 2.396-5.555l33.048-34.37c6.023 1.022 12.246-1.013 16.578-5.516 7.342-7.637 7.342-20.062 0-27.699l-32.259-33.55a8.31 8.31 0 0 0-11.865-.117l-1.768 1.767-19.176 19.944-30.672 31.898c-1.527 1.59-3.554 2.465-5.707 2.465-2.154 0-4.18-.875-5.708-2.465zm30.45 59.831L25.201 97.956c-19.092-19.855-19.092-52.162.001-72.017 9.198-9.566 21.44-14.835 34.47-14.835 13.031 0 25.274 5.269 34.472 14.835l9.869 10.263-49.848 51.843c-7.343 7.637-7.343 20.062 0 27.699 4.33 4.503 10.555 6.541 16.578 5.516l33.047 34.37c1.424 1.48 2.273 3.45 2.397 5.556-.009.358-.009.718 0 1.076-.124 2.107-.973 4.075-2.396 5.556-1.529 1.588-3.556 2.464-5.709 2.464-2.152 0-4.179-.876-5.706-2.464zm57.529-59.83l-30.673-31.899 11.567-12.029 30.519 31.74c3.232 3.36 3.232 8.828 0 12.188-1.528 1.589-3.553 2.464-5.707 2.464-2.152 0-4.179-.875-5.706-2.464zm-38.353 39.887l-30.673-31.901c.075-.077.15-.152.224-.23l30.519-31.741 30.52 31.741.225.23-30.674 31.901-.071.073-.07-.073z" mask="url(#c)"/>
    </g>
</svg>
